<mxfile host="app.diagrams.net" modified="2021-12-12T04:10:32.853Z" agent="5.0 (Windows NT 10.0; Win64; x64) AppleWebKit/537.36 (KHTML, like Gecko) Chrome/96.0.4664.93 Safari/537.36" etag="Hg4C94KZilFo7jbC7ltt" version="15.7.4" type="github" pages="2">
  <diagram id="F8t1HjEVFxSJ_2ZWDS9a" name="Page-1">
    <mxGraphModel dx="2304" dy="1916" grid="1" gridSize="10" guides="1" tooltips="1" connect="1" arrows="1" fold="1" page="1" pageScale="1" pageWidth="827" pageHeight="1169" math="0" shadow="0">
      <root>
        <mxCell id="0" />
        <mxCell id="1" parent="0" />
        <mxCell id="DlIAzclUvQerjkCaNcL--31" value="" style="group" vertex="1" connectable="0" parent="1">
          <mxGeometry x="690" y="247" width="99" height="60" as="geometry" />
        </mxCell>
        <mxCell id="DlIAzclUvQerjkCaNcL--18" value="" style="verticalLabelPosition=bottom;outlineConnect=0;align=center;dashed=0;html=1;verticalAlign=top;shape=mxgraph.pid.misc.tank_car,_tank_wagon;fontSize=19;" vertex="1" parent="DlIAzclUvQerjkCaNcL--31">
          <mxGeometry width="99" height="60" as="geometry" />
        </mxCell>
        <mxCell id="DlIAzclUvQerjkCaNcL--19" value="AGV" style="text;html=1;strokeColor=none;fillColor=none;align=center;verticalAlign=middle;whiteSpace=wrap;rounded=0;fontSize=19;" vertex="1" parent="DlIAzclUvQerjkCaNcL--31">
          <mxGeometry x="25.334645669291337" y="12" width="46.77165354330708" height="22.5" as="geometry" />
        </mxCell>
        <mxCell id="DlIAzclUvQerjkCaNcL--32" value="AGV入庫流程" style="rounded=0;whiteSpace=wrap;html=1;fontSize=19;" vertex="1" parent="1">
          <mxGeometry x="703.5" y="211" width="120" height="30" as="geometry" />
        </mxCell>
        <mxCell id="DlIAzclUvQerjkCaNcL--33" value="人工出庫流程" style="rounded=0;whiteSpace=wrap;html=1;fontSize=19;" vertex="1" parent="1">
          <mxGeometry x="703.5" y="370" width="120" height="30" as="geometry" />
        </mxCell>
        <mxCell id="DlIAzclUvQerjkCaNcL--37" style="edgeStyle=orthogonalEdgeStyle;rounded=0;orthogonalLoop=1;jettySize=auto;html=1;exitX=1;exitY=0.5;exitDx=0;exitDy=0;fontSize=19;startArrow=none;startFill=0;endArrow=classic;endFill=1;" edge="1" parent="1" source="DlIAzclUvQerjkCaNcL--35" target="DlIAzclUvQerjkCaNcL--36">
          <mxGeometry relative="1" as="geometry" />
        </mxCell>
        <mxCell id="DlIAzclUvQerjkCaNcL--35" value="Miniload" style="rounded=1;whiteSpace=wrap;html=1;" vertex="1" parent="1">
          <mxGeometry x="703.5" y="440" width="120" height="60" as="geometry" />
        </mxCell>
        <mxCell id="DlIAzclUvQerjkCaNcL--39" style="edgeStyle=orthogonalEdgeStyle;rounded=0;orthogonalLoop=1;jettySize=auto;html=1;exitX=1;exitY=0.5;exitDx=0;exitDy=0;entryX=0;entryY=0.5;entryDx=0;entryDy=0;fontSize=19;startArrow=classic;startFill=1;endArrow=classic;endFill=1;" edge="1" parent="1" source="DlIAzclUvQerjkCaNcL--36" target="DlIAzclUvQerjkCaNcL--38">
          <mxGeometry relative="1" as="geometry" />
        </mxCell>
        <mxCell id="DlIAzclUvQerjkCaNcL--36" value="WMS" style="rounded=1;whiteSpace=wrap;html=1;" vertex="1" parent="1">
          <mxGeometry x="910" y="440" width="120" height="60" as="geometry" />
        </mxCell>
        <mxCell id="DlIAzclUvQerjkCaNcL--38" value="SFCS" style="rounded=1;whiteSpace=wrap;html=1;" vertex="1" parent="1">
          <mxGeometry x="1122" y="440" width="120" height="60" as="geometry" />
        </mxCell>
        <mxCell id="DlIAzclUvQerjkCaNcL--40" value="工單出庫流程" style="rounded=0;whiteSpace=wrap;html=1;fontSize=19;" vertex="1" parent="1">
          <mxGeometry x="703.5" y="550" width="120" height="30" as="geometry" />
        </mxCell>
        <mxCell id="DlIAzclUvQerjkCaNcL--49" style="edgeStyle=orthogonalEdgeStyle;rounded=0;orthogonalLoop=1;jettySize=auto;html=1;exitX=1;exitY=0.5;exitDx=0;exitDy=0;entryX=0;entryY=0.5;entryDx=0;entryDy=0;fontSize=19;startArrow=none;startFill=0;endArrow=classic;endFill=1;" edge="1" parent="1" source="DlIAzclUvQerjkCaNcL--41" target="DlIAzclUvQerjkCaNcL--43">
          <mxGeometry relative="1" as="geometry" />
        </mxCell>
        <mxCell id="DlIAzclUvQerjkCaNcL--41" value="SFCS" style="rounded=1;whiteSpace=wrap;html=1;" vertex="1" parent="1">
          <mxGeometry x="700" y="610" width="120" height="60" as="geometry" />
        </mxCell>
        <mxCell id="DlIAzclUvQerjkCaNcL--50" style="edgeStyle=orthogonalEdgeStyle;rounded=0;orthogonalLoop=1;jettySize=auto;html=1;exitX=1;exitY=0.5;exitDx=0;exitDy=0;fontSize=19;startArrow=classic;startFill=1;endArrow=classic;endFill=1;" edge="1" parent="1" source="DlIAzclUvQerjkCaNcL--43" target="DlIAzclUvQerjkCaNcL--44">
          <mxGeometry relative="1" as="geometry" />
        </mxCell>
        <mxCell id="DlIAzclUvQerjkCaNcL--51" style="edgeStyle=orthogonalEdgeStyle;rounded=0;orthogonalLoop=1;jettySize=auto;html=1;exitX=1;exitY=0.5;exitDx=0;exitDy=0;fontSize=19;startArrow=classic;startFill=1;endArrow=classic;endFill=1;" edge="1" parent="1" source="DlIAzclUvQerjkCaNcL--43">
          <mxGeometry relative="1" as="geometry">
            <mxPoint x="1120" y="750" as="targetPoint" />
            <Array as="points">
              <mxPoint x="1070" y="640" />
              <mxPoint x="1070" y="750" />
            </Array>
          </mxGeometry>
        </mxCell>
        <mxCell id="DlIAzclUvQerjkCaNcL--43" value="WMS" style="rounded=1;whiteSpace=wrap;html=1;" vertex="1" parent="1">
          <mxGeometry x="910" y="610" width="120" height="60" as="geometry" />
        </mxCell>
        <mxCell id="DlIAzclUvQerjkCaNcL--44" value="Miniload" style="rounded=1;whiteSpace=wrap;html=1;" vertex="1" parent="1">
          <mxGeometry x="1122" y="610" width="120" height="60" as="geometry" />
        </mxCell>
        <mxCell id="DlIAzclUvQerjkCaNcL--46" value="" style="group" vertex="1" connectable="0" parent="1">
          <mxGeometry x="1122" y="720" width="99" height="60" as="geometry" />
        </mxCell>
        <mxCell id="DlIAzclUvQerjkCaNcL--47" value="" style="verticalLabelPosition=bottom;outlineConnect=0;align=center;dashed=0;html=1;verticalAlign=top;shape=mxgraph.pid.misc.tank_car,_tank_wagon;fontSize=19;" vertex="1" parent="DlIAzclUvQerjkCaNcL--46">
          <mxGeometry width="99" height="60" as="geometry" />
        </mxCell>
        <mxCell id="DlIAzclUvQerjkCaNcL--48" value="AGV" style="text;html=1;strokeColor=none;fillColor=none;align=center;verticalAlign=middle;whiteSpace=wrap;rounded=0;fontSize=19;" vertex="1" parent="DlIAzclUvQerjkCaNcL--46">
          <mxGeometry x="25.334645669291337" y="12" width="46.77165354330708" height="22.5" as="geometry" />
        </mxCell>
        <mxCell id="DlIAzclUvQerjkCaNcL--52" style="edgeStyle=orthogonalEdgeStyle;rounded=0;orthogonalLoop=1;jettySize=auto;html=1;exitX=1;exitY=0.5;exitDx=0;exitDy=0;entryX=0;entryY=0.5;entryDx=0;entryDy=0;fontSize=19;startArrow=classic;startFill=1;endArrow=classic;endFill=1;" edge="1" parent="1" source="DlIAzclUvQerjkCaNcL--53" target="DlIAzclUvQerjkCaNcL--56">
          <mxGeometry relative="1" as="geometry" />
        </mxCell>
        <mxCell id="DlIAzclUvQerjkCaNcL--53" value="WMS" style="rounded=1;whiteSpace=wrap;html=1;" vertex="1" parent="1">
          <mxGeometry x="1070" y="247" width="120" height="60" as="geometry" />
        </mxCell>
        <mxCell id="DlIAzclUvQerjkCaNcL--54" style="edgeStyle=orthogonalEdgeStyle;rounded=0;orthogonalLoop=1;jettySize=auto;html=1;exitX=1;exitY=0.5;exitDx=0;exitDy=0;entryX=0;entryY=0.5;entryDx=0;entryDy=0;fontSize=19;startArrow=classic;startFill=1;endArrow=classic;endFill=1;" edge="1" parent="1" source="DlIAzclUvQerjkCaNcL--55" target="DlIAzclUvQerjkCaNcL--53">
          <mxGeometry relative="1" as="geometry" />
        </mxCell>
        <mxCell id="DlIAzclUvQerjkCaNcL--55" value="Miniload" style="rounded=1;whiteSpace=wrap;html=1;" vertex="1" parent="1">
          <mxGeometry x="880" y="247" width="120" height="60" as="geometry" />
        </mxCell>
        <mxCell id="DlIAzclUvQerjkCaNcL--56" value="SFCS" style="rounded=1;whiteSpace=wrap;html=1;" vertex="1" parent="1">
          <mxGeometry x="1260" y="247" width="120" height="60" as="geometry" />
        </mxCell>
        <mxCell id="DlIAzclUvQerjkCaNcL--57" style="edgeStyle=orthogonalEdgeStyle;rounded=0;orthogonalLoop=1;jettySize=auto;html=1;fontSize=19;startArrow=none;startFill=0;endArrow=classic;endFill=1;" edge="1" parent="1" source="DlIAzclUvQerjkCaNcL--18" target="DlIAzclUvQerjkCaNcL--55">
          <mxGeometry relative="1" as="geometry" />
        </mxCell>
        <mxCell id="DlIAzclUvQerjkCaNcL--62" value="&lt;span style=&quot;font-size: 12px&quot;&gt;AGV TCS&lt;/span&gt;" style="rounded=1;whiteSpace=wrap;html=1;fontSize=19;" vertex="1" parent="1">
          <mxGeometry x="860" y="-90" width="90" height="30" as="geometry" />
        </mxCell>
        <mxCell id="DlIAzclUvQerjkCaNcL--91" value="&lt;h1&gt;入庫請求&lt;/h1&gt;&lt;p&gt;Lorem ipsum dolor sit amet, consectetur adipisicing elit, sed do eiusmod tempor incididunt ut labore et dolore magna aliqua.&lt;/p&gt;" style="text;html=1;strokeColor=none;fillColor=none;spacing=5;spacingTop=-20;whiteSpace=wrap;overflow=hidden;rounded=0;fontSize=11;" vertex="1" parent="1">
          <mxGeometry x="-300" y="90" width="190" height="120" as="geometry" />
        </mxCell>
        <mxCell id="DlIAzclUvQerjkCaNcL--92" value="&lt;h1&gt;入庫請求回報&lt;/h1&gt;&lt;p&gt;Lorem ipsum dolor sit amet, consectetur adipisicing elit, sed do eiusmod tempor incididunt ut labore et dolore magna aliqua.&lt;/p&gt;" style="text;html=1;strokeColor=none;fillColor=none;spacing=5;spacingTop=-20;whiteSpace=wrap;overflow=hidden;rounded=0;fontSize=11;" vertex="1" parent="1">
          <mxGeometry x="-300" y="210" width="190" height="120" as="geometry" />
        </mxCell>
      </root>
    </mxGraphModel>
  </diagram>
  <diagram id="s_qvDQUlh5c1jnIihD-f" name="人工入庫流程">
    <mxGraphModel dx="2142" dy="1083" grid="1" gridSize="10" guides="1" tooltips="1" connect="1" arrows="1" fold="1" page="1" pageScale="1" pageWidth="827" pageHeight="1169" math="0" shadow="0">
      <root>
        <mxCell id="MNKMFVbK3m3X3I9KNmGF-0" />
        <mxCell id="MNKMFVbK3m3X3I9KNmGF-1" parent="MNKMFVbK3m3X3I9KNmGF-0" />
        <mxCell id="xdhVknBT5ud63FR7zZxx-0" style="edgeStyle=orthogonalEdgeStyle;rounded=0;orthogonalLoop=1;jettySize=auto;html=1;exitX=1;exitY=0.5;exitDx=0;exitDy=0;entryX=0;entryY=0.5;entryDx=0;entryDy=0;fontSize=19;startArrow=classic;startFill=1;endArrow=classic;endFill=1;" edge="1" parent="MNKMFVbK3m3X3I9KNmGF-1" source="xdhVknBT5ud63FR7zZxx-1" target="xdhVknBT5ud63FR7zZxx-4">
          <mxGeometry relative="1" as="geometry" />
        </mxCell>
        <mxCell id="xdhVknBT5ud63FR7zZxx-1" value="WMS" style="rounded=1;whiteSpace=wrap;html=1;" vertex="1" parent="MNKMFVbK3m3X3I9KNmGF-1">
          <mxGeometry x="430" y="690" width="90" height="40" as="geometry" />
        </mxCell>
        <mxCell id="xdhVknBT5ud63FR7zZxx-2" style="edgeStyle=orthogonalEdgeStyle;rounded=0;orthogonalLoop=1;jettySize=auto;html=1;exitX=1;exitY=0.5;exitDx=0;exitDy=0;entryX=0;entryY=0.5;entryDx=0;entryDy=0;fontSize=19;startArrow=classic;startFill=1;endArrow=classic;endFill=1;" edge="1" parent="MNKMFVbK3m3X3I9KNmGF-1" source="xdhVknBT5ud63FR7zZxx-3" target="xdhVknBT5ud63FR7zZxx-1">
          <mxGeometry relative="1" as="geometry" />
        </mxCell>
        <mxCell id="xdhVknBT5ud63FR7zZxx-3" value="Miniload" style="rounded=1;whiteSpace=wrap;html=1;" vertex="1" parent="MNKMFVbK3m3X3I9KNmGF-1">
          <mxGeometry x="290" y="690" width="90" height="40" as="geometry" />
        </mxCell>
        <mxCell id="xdhVknBT5ud63FR7zZxx-4" value="SFCS" style="rounded=1;whiteSpace=wrap;html=1;" vertex="1" parent="MNKMFVbK3m3X3I9KNmGF-1">
          <mxGeometry x="570" y="690" width="100" height="40" as="geometry" />
        </mxCell>
        <mxCell id="xdhVknBT5ud63FR7zZxx-5" style="edgeStyle=orthogonalEdgeStyle;rounded=0;orthogonalLoop=1;jettySize=auto;html=1;entryX=0;entryY=0.5;entryDx=0;entryDy=0;fontSize=19;" edge="1" parent="MNKMFVbK3m3X3I9KNmGF-1" source="xdhVknBT5ud63FR7zZxx-6" target="xdhVknBT5ud63FR7zZxx-3">
          <mxGeometry relative="1" as="geometry" />
        </mxCell>
        <mxCell id="xdhVknBT5ud63FR7zZxx-6" value="" style="shape=actor;whiteSpace=wrap;html=1;fontSize=19;" vertex="1" parent="MNKMFVbK3m3X3I9KNmGF-1">
          <mxGeometry x="110" y="680" width="40" height="60" as="geometry" />
        </mxCell>
        <mxCell id="xdhVknBT5ud63FR7zZxx-7" value="" style="group" vertex="1" connectable="0" parent="MNKMFVbK3m3X3I9KNmGF-1">
          <mxGeometry x="110" y="120" width="556.1700000000001" height="541" as="geometry" />
        </mxCell>
        <mxCell id="xdhVknBT5ud63FR7zZxx-8" value="&lt;span style=&quot;font-size: 12px&quot;&gt;EAP&lt;/span&gt;" style="rounded=1;whiteSpace=wrap;html=1;fontSize=19;" vertex="1" parent="xdhVknBT5ud63FR7zZxx-7">
          <mxGeometry x="226.17000000000002" y="40" width="90" height="30" as="geometry" />
        </mxCell>
        <mxCell id="xdhVknBT5ud63FR7zZxx-9" value="&lt;span style=&quot;font-size: 12px&quot;&gt;WMS&lt;/span&gt;" style="rounded=1;whiteSpace=wrap;html=1;fontSize=19;" vertex="1" parent="xdhVknBT5ud63FR7zZxx-7">
          <mxGeometry x="346.17" y="40" width="90" height="30" as="geometry" />
        </mxCell>
        <mxCell id="xdhVknBT5ud63FR7zZxx-10" value="&lt;span style=&quot;font-size: 12px&quot;&gt;SFCS&lt;/span&gt;" style="rounded=1;whiteSpace=wrap;html=1;fontSize=19;" vertex="1" parent="xdhVknBT5ud63FR7zZxx-7">
          <mxGeometry x="466.17" y="40" width="90" height="30" as="geometry" />
        </mxCell>
        <mxCell id="xdhVknBT5ud63FR7zZxx-11" value="" style="endArrow=none;html=1;rounded=0;fontSize=19;entryX=0.5;entryY=1;entryDx=0;entryDy=0;exitX=0.5;exitY=0;exitDx=0;exitDy=0;" edge="1" parent="xdhVknBT5ud63FR7zZxx-7" source="xdhVknBT5ud63FR7zZxx-20" target="xdhVknBT5ud63FR7zZxx-8">
          <mxGeometry width="50" height="50" relative="1" as="geometry">
            <mxPoint x="436.17" y="140" as="sourcePoint" />
            <mxPoint x="486.16999999999996" y="90" as="targetPoint" />
          </mxGeometry>
        </mxCell>
        <mxCell id="xdhVknBT5ud63FR7zZxx-12" value="" style="endArrow=none;html=1;rounded=0;fontSize=19;entryX=0.5;entryY=1;entryDx=0;entryDy=0;exitX=0.5;exitY=0;exitDx=0;exitDy=0;" edge="1" parent="xdhVknBT5ud63FR7zZxx-7" source="xdhVknBT5ud63FR7zZxx-21" target="xdhVknBT5ud63FR7zZxx-9">
          <mxGeometry width="50" height="50" relative="1" as="geometry">
            <mxPoint x="281.17000000000024" y="430" as="sourcePoint" />
            <mxPoint x="281.17000000000024" y="80" as="targetPoint" />
          </mxGeometry>
        </mxCell>
        <mxCell id="xdhVknBT5ud63FR7zZxx-13" value="" style="endArrow=none;html=1;rounded=0;fontSize=19;entryX=0.5;entryY=1;entryDx=0;entryDy=0;exitX=0.5;exitY=0;exitDx=0;exitDy=0;" edge="1" parent="xdhVknBT5ud63FR7zZxx-7" source="xdhVknBT5ud63FR7zZxx-22" target="xdhVknBT5ud63FR7zZxx-10">
          <mxGeometry width="50" height="50" relative="1" as="geometry">
            <mxPoint x="566.17" y="320" as="sourcePoint" />
            <mxPoint x="576.17" y="120" as="targetPoint" />
          </mxGeometry>
        </mxCell>
        <mxCell id="xdhVknBT5ud63FR7zZxx-14" value="&lt;font style=&quot;font-size: 16px&quot;&gt;&lt;b&gt;人工入庫流程&lt;/b&gt;&lt;/font&gt;" style="rounded=0;whiteSpace=wrap;html=1;fontSize=19;fillColor=#dae8fc;strokeColor=#6c8ebf;" vertex="1" parent="xdhVknBT5ud63FR7zZxx-7">
          <mxGeometry width="120" height="20" as="geometry" />
        </mxCell>
        <mxCell id="xdhVknBT5ud63FR7zZxx-15" value="" style="endArrow=classic;html=1;rounded=0;fontSize=16;" edge="1" parent="xdhVknBT5ud63FR7zZxx-7">
          <mxGeometry relative="1" as="geometry">
            <mxPoint x="147" y="109" as="sourcePoint" />
            <mxPoint x="267" y="109" as="targetPoint" />
          </mxGeometry>
        </mxCell>
        <mxCell id="xdhVknBT5ud63FR7zZxx-16" value="&lt;span style=&quot;font-size: 11px&quot;&gt;條碼確認請求&lt;/span&gt;" style="edgeLabel;resizable=0;html=1;align=center;verticalAlign=middle;fontSize=16;" connectable="0" vertex="1" parent="xdhVknBT5ud63FR7zZxx-15">
          <mxGeometry relative="1" as="geometry">
            <mxPoint x="-5" y="1" as="offset" />
          </mxGeometry>
        </mxCell>
        <mxCell id="xdhVknBT5ud63FR7zZxx-17" value="" style="endArrow=classic;html=1;rounded=0;fontSize=16;" edge="1" parent="xdhVknBT5ud63FR7zZxx-7">
          <mxGeometry relative="1" as="geometry">
            <mxPoint x="267" y="225" as="sourcePoint" />
            <mxPoint x="147" y="225" as="targetPoint" />
          </mxGeometry>
        </mxCell>
        <mxCell id="xdhVknBT5ud63FR7zZxx-18" value="&lt;font style=&quot;font-size: 11px&quot;&gt;條碼確認回報&lt;/font&gt;" style="edgeLabel;resizable=0;html=1;align=center;verticalAlign=middle;fontSize=16;" connectable="0" vertex="1" parent="xdhVknBT5ud63FR7zZxx-17">
          <mxGeometry relative="1" as="geometry">
            <mxPoint as="offset" />
          </mxGeometry>
        </mxCell>
        <mxCell id="xdhVknBT5ud63FR7zZxx-19" value="" style="ellipse;whiteSpace=wrap;html=1;aspect=fixed;fontSize=19;" vertex="1" parent="xdhVknBT5ud63FR7zZxx-7">
          <mxGeometry x="27.5" y="521" width="20" height="20" as="geometry" />
        </mxCell>
        <mxCell id="xdhVknBT5ud63FR7zZxx-20" value="" style="ellipse;whiteSpace=wrap;html=1;aspect=fixed;fontSize=19;" vertex="1" parent="xdhVknBT5ud63FR7zZxx-7">
          <mxGeometry x="261.17" y="521" width="20" height="20" as="geometry" />
        </mxCell>
        <mxCell id="xdhVknBT5ud63FR7zZxx-21" value="" style="ellipse;whiteSpace=wrap;html=1;aspect=fixed;fontSize=19;" vertex="1" parent="xdhVknBT5ud63FR7zZxx-7">
          <mxGeometry x="381.17" y="521" width="20" height="20" as="geometry" />
        </mxCell>
        <mxCell id="xdhVknBT5ud63FR7zZxx-22" value="" style="ellipse;whiteSpace=wrap;html=1;aspect=fixed;fontSize=19;" vertex="1" parent="xdhVknBT5ud63FR7zZxx-7">
          <mxGeometry x="501.1700000000001" y="521" width="20" height="20" as="geometry" />
        </mxCell>
        <mxCell id="xdhVknBT5ud63FR7zZxx-23" value="" style="group" vertex="1" connectable="0" parent="xdhVknBT5ud63FR7zZxx-7">
          <mxGeometry y="30" width="180" height="50" as="geometry" />
        </mxCell>
        <mxCell id="xdhVknBT5ud63FR7zZxx-24" value="&lt;span style=&quot;font-size: 12px&quot;&gt;Miniload&lt;/span&gt;" style="rounded=1;whiteSpace=wrap;html=1;fontSize=19;" vertex="1" parent="xdhVknBT5ud63FR7zZxx-23">
          <mxGeometry width="180" height="20" as="geometry" />
        </mxCell>
        <mxCell id="xdhVknBT5ud63FR7zZxx-25" value="&lt;span style=&quot;font-size: 12px&quot;&gt;Stock&lt;/span&gt;" style="rounded=1;whiteSpace=wrap;html=1;fontSize=19;" vertex="1" parent="xdhVknBT5ud63FR7zZxx-23">
          <mxGeometry y="30" width="75" height="20" as="geometry" />
        </mxCell>
        <mxCell id="xdhVknBT5ud63FR7zZxx-26" value="&lt;span style=&quot;font-size: 12px&quot;&gt;RF&lt;/span&gt;" style="rounded=1;whiteSpace=wrap;html=1;fontSize=19;" vertex="1" parent="xdhVknBT5ud63FR7zZxx-23">
          <mxGeometry x="105" y="30" width="75" height="20" as="geometry" />
        </mxCell>
        <mxCell id="xdhVknBT5ud63FR7zZxx-27" style="edgeStyle=orthogonalEdgeStyle;rounded=0;orthogonalLoop=1;jettySize=auto;html=1;fontSize=19;startArrow=none;startFill=0;endArrow=none;endFill=0;exitX=0.5;exitY=1;exitDx=0;exitDy=0;" edge="1" parent="xdhVknBT5ud63FR7zZxx-7" source="xdhVknBT5ud63FR7zZxx-25" target="xdhVknBT5ud63FR7zZxx-19">
          <mxGeometry relative="1" as="geometry">
            <mxPoint x="75.0689655172414" y="450" as="targetPoint" />
            <mxPoint x="75" y="130" as="sourcePoint" />
          </mxGeometry>
        </mxCell>
        <mxCell id="xdhVknBT5ud63FR7zZxx-28" style="edgeStyle=orthogonalEdgeStyle;rounded=0;orthogonalLoop=1;jettySize=auto;html=1;fontSize=19;startArrow=none;startFill=0;endArrow=none;endFill=0;exitX=0.5;exitY=1;exitDx=0;exitDy=0;" edge="1" parent="xdhVknBT5ud63FR7zZxx-7" source="xdhVknBT5ud63FR7zZxx-26" target="xdhVknBT5ud63FR7zZxx-29">
          <mxGeometry relative="1" as="geometry">
            <mxPoint x="177.5689655172414" y="480" as="targetPoint" />
            <mxPoint x="235" y="100" as="sourcePoint" />
          </mxGeometry>
        </mxCell>
        <mxCell id="xdhVknBT5ud63FR7zZxx-29" value="" style="ellipse;whiteSpace=wrap;html=1;aspect=fixed;fontSize=19;" vertex="1" parent="xdhVknBT5ud63FR7zZxx-7">
          <mxGeometry x="132.5" y="521" width="20" height="20" as="geometry" />
        </mxCell>
        <mxCell id="xdhVknBT5ud63FR7zZxx-30" value="" style="endArrow=classic;html=1;rounded=0;fontSize=11;dashed=1;" edge="1" parent="xdhVknBT5ud63FR7zZxx-7">
          <mxGeometry relative="1" as="geometry">
            <mxPoint x="40" y="263.65999999999997" as="sourcePoint" />
            <mxPoint x="270" y="263.65999999999997" as="targetPoint" />
          </mxGeometry>
        </mxCell>
        <mxCell id="xdhVknBT5ud63FR7zZxx-31" value="入庫請求" style="edgeLabel;resizable=0;html=1;align=center;verticalAlign=middle;fontSize=11;" connectable="0" vertex="1" parent="xdhVknBT5ud63FR7zZxx-30">
          <mxGeometry relative="1" as="geometry">
            <mxPoint x="-65" as="offset" />
          </mxGeometry>
        </mxCell>
        <mxCell id="xdhVknBT5ud63FR7zZxx-32" value="" style="endArrow=classic;html=1;rounded=0;fontSize=11;dashed=1;" edge="1" parent="xdhVknBT5ud63FR7zZxx-7">
          <mxGeometry relative="1" as="geometry">
            <mxPoint x="270" y="298" as="sourcePoint" />
            <mxPoint x="40" y="298" as="targetPoint" />
          </mxGeometry>
        </mxCell>
        <mxCell id="xdhVknBT5ud63FR7zZxx-33" value="入庫請求回報" style="edgeLabel;resizable=0;html=1;align=center;verticalAlign=middle;fontSize=11;" connectable="0" vertex="1" parent="xdhVknBT5ud63FR7zZxx-32">
          <mxGeometry relative="1" as="geometry">
            <mxPoint x="71" y="-1" as="offset" />
          </mxGeometry>
        </mxCell>
        <mxCell id="xdhVknBT5ud63FR7zZxx-34" value="" style="endArrow=classic;html=1;rounded=0;fontSize=11;dashed=1;" edge="1" parent="xdhVknBT5ud63FR7zZxx-7">
          <mxGeometry relative="1" as="geometry">
            <mxPoint x="40" y="337.9999999999999" as="sourcePoint" />
            <mxPoint x="270" y="337.9999999999999" as="targetPoint" />
          </mxGeometry>
        </mxCell>
        <mxCell id="xdhVknBT5ud63FR7zZxx-35" value="入庫開始事件" style="edgeLabel;resizable=0;html=1;align=center;verticalAlign=middle;fontSize=11;" connectable="0" vertex="1" parent="xdhVknBT5ud63FR7zZxx-34">
          <mxGeometry relative="1" as="geometry">
            <mxPoint x="-65" as="offset" />
          </mxGeometry>
        </mxCell>
        <mxCell id="xdhVknBT5ud63FR7zZxx-36" value="" style="endArrow=classic;html=1;rounded=0;fontSize=11;dashed=1;" edge="1" parent="xdhVknBT5ud63FR7zZxx-7">
          <mxGeometry relative="1" as="geometry">
            <mxPoint x="40" y="378" as="sourcePoint" />
            <mxPoint x="270" y="378" as="targetPoint" />
          </mxGeometry>
        </mxCell>
        <mxCell id="xdhVknBT5ud63FR7zZxx-37" value="入庫結束事件" style="edgeLabel;resizable=0;html=1;align=center;verticalAlign=middle;fontSize=11;" connectable="0" vertex="1" parent="xdhVknBT5ud63FR7zZxx-36">
          <mxGeometry relative="1" as="geometry">
            <mxPoint x="-65" as="offset" />
          </mxGeometry>
        </mxCell>
        <mxCell id="xdhVknBT5ud63FR7zZxx-38" value="" style="endArrow=classic;html=1;rounded=0;fontSize=11;dashed=1;" edge="1" parent="xdhVknBT5ud63FR7zZxx-7">
          <mxGeometry relative="1" as="geometry">
            <mxPoint x="40" y="418" as="sourcePoint" />
            <mxPoint x="270" y="418" as="targetPoint" />
          </mxGeometry>
        </mxCell>
        <mxCell id="xdhVknBT5ud63FR7zZxx-39" value="入庫完成回報" style="edgeLabel;resizable=0;html=1;align=center;verticalAlign=middle;fontSize=11;" connectable="0" vertex="1" parent="xdhVknBT5ud63FR7zZxx-38">
          <mxGeometry relative="1" as="geometry">
            <mxPoint x="-65" as="offset" />
          </mxGeometry>
        </mxCell>
        <mxCell id="xdhVknBT5ud63FR7zZxx-40" value="" style="endArrow=classic;html=1;rounded=0;fontSize=16;" edge="1" parent="xdhVknBT5ud63FR7zZxx-7">
          <mxGeometry relative="1" as="geometry">
            <mxPoint x="271" y="130" as="sourcePoint" />
            <mxPoint x="391" y="130" as="targetPoint" />
          </mxGeometry>
        </mxCell>
        <mxCell id="xdhVknBT5ud63FR7zZxx-41" value="&lt;span style=&quot;font-size: 11px&quot;&gt;條碼確認請求&lt;/span&gt;" style="edgeLabel;resizable=0;html=1;align=center;verticalAlign=middle;fontSize=16;" connectable="0" vertex="1" parent="xdhVknBT5ud63FR7zZxx-40">
          <mxGeometry relative="1" as="geometry">
            <mxPoint x="-5" y="1" as="offset" />
          </mxGeometry>
        </mxCell>
        <mxCell id="xdhVknBT5ud63FR7zZxx-42" value="" style="endArrow=classic;html=1;rounded=0;fontSize=16;" edge="1" parent="xdhVknBT5ud63FR7zZxx-7">
          <mxGeometry relative="1" as="geometry">
            <mxPoint x="390" y="202" as="sourcePoint" />
            <mxPoint x="270" y="202" as="targetPoint" />
          </mxGeometry>
        </mxCell>
        <mxCell id="xdhVknBT5ud63FR7zZxx-43" value="&lt;font style=&quot;font-size: 11px&quot;&gt;條碼確認回報&lt;/font&gt;" style="edgeLabel;resizable=0;html=1;align=center;verticalAlign=middle;fontSize=16;" connectable="0" vertex="1" parent="xdhVknBT5ud63FR7zZxx-42">
          <mxGeometry relative="1" as="geometry">
            <mxPoint as="offset" />
          </mxGeometry>
        </mxCell>
        <mxCell id="xdhVknBT5ud63FR7zZxx-44" value="" style="endArrow=classic;html=1;rounded=0;fontSize=16;" edge="1" parent="xdhVknBT5ud63FR7zZxx-7">
          <mxGeometry relative="1" as="geometry">
            <mxPoint x="271.0000000000002" y="452" as="sourcePoint" />
            <mxPoint x="391" y="452" as="targetPoint" />
          </mxGeometry>
        </mxCell>
        <mxCell id="xdhVknBT5ud63FR7zZxx-45" value="&lt;span style=&quot;font-size: 11px&quot;&gt;入庫完成回報&lt;/span&gt;" style="edgeLabel;resizable=0;html=1;align=center;verticalAlign=middle;fontSize=16;" connectable="0" vertex="1" parent="xdhVknBT5ud63FR7zZxx-44">
          <mxGeometry relative="1" as="geometry">
            <mxPoint x="-5" y="1" as="offset" />
          </mxGeometry>
        </mxCell>
        <mxCell id="xdhVknBT5ud63FR7zZxx-46" value="" style="endArrow=classic;html=1;rounded=0;fontSize=16;fontStyle=4" edge="1" parent="xdhVknBT5ud63FR7zZxx-7">
          <mxGeometry relative="1" as="geometry">
            <mxPoint x="391" y="482" as="sourcePoint" />
            <mxPoint x="511" y="482" as="targetPoint" />
          </mxGeometry>
        </mxCell>
        <mxCell id="xdhVknBT5ud63FR7zZxx-47" value="&lt;span style=&quot;font-size: 11px&quot;&gt;入庫完成回報&lt;/span&gt;" style="edgeLabel;resizable=0;html=1;align=center;verticalAlign=middle;fontSize=16;fontStyle=4" connectable="0" vertex="1" parent="xdhVknBT5ud63FR7zZxx-46">
          <mxGeometry relative="1" as="geometry">
            <mxPoint x="-5" y="1" as="offset" />
          </mxGeometry>
        </mxCell>
        <mxCell id="xdhVknBT5ud63FR7zZxx-48" value="" style="endArrow=classic;html=1;rounded=0;fontSize=16;" edge="1" parent="xdhVknBT5ud63FR7zZxx-7">
          <mxGeometry relative="1" as="geometry">
            <mxPoint x="391" y="150" as="sourcePoint" />
            <mxPoint x="511" y="150" as="targetPoint" />
          </mxGeometry>
        </mxCell>
        <mxCell id="xdhVknBT5ud63FR7zZxx-49" value="&lt;span style=&quot;font-size: 11px&quot;&gt;條碼確認請求&lt;/span&gt;" style="edgeLabel;resizable=0;html=1;align=center;verticalAlign=middle;fontSize=16;" connectable="0" vertex="1" parent="xdhVknBT5ud63FR7zZxx-48">
          <mxGeometry relative="1" as="geometry">
            <mxPoint x="-5" y="1" as="offset" />
          </mxGeometry>
        </mxCell>
        <mxCell id="xdhVknBT5ud63FR7zZxx-50" value="" style="endArrow=classic;html=1;rounded=0;fontSize=16;" edge="1" parent="xdhVknBT5ud63FR7zZxx-7">
          <mxGeometry relative="1" as="geometry">
            <mxPoint x="510" y="181" as="sourcePoint" />
            <mxPoint x="390" y="181" as="targetPoint" />
          </mxGeometry>
        </mxCell>
        <mxCell id="xdhVknBT5ud63FR7zZxx-51" value="&lt;font style=&quot;font-size: 11px&quot;&gt;條碼確認回報&lt;/font&gt;" style="edgeLabel;resizable=0;html=1;align=center;verticalAlign=middle;fontSize=16;" connectable="0" vertex="1" parent="xdhVknBT5ud63FR7zZxx-50">
          <mxGeometry relative="1" as="geometry">
            <mxPoint as="offset" />
          </mxGeometry>
        </mxCell>
      </root>
    </mxGraphModel>
  </diagram>
</mxfile>
